<?xml version="1.0" encoding="utf-8"?>
<!-- Generator: Adobe Illustrator 23.0.1, SVG Export Plug-In . SVG Version: 6.00 Build 0)  -->
<svg version="1.1" id="Layer_1" xmlns="http://www.w3.org/2000/svg" xmlns:xlink="http://www.w3.org/1999/xlink" x="0px" y="0px"
	 viewBox="0 0 406 106.6" style="enable-background:new 0 0 406 106.6;" xml:space="preserve">
<style type="text/css">
	.st0{fill:#301229;}
</style>
<title>logo</title>
<g>
	<g id="Layer_1-2">
		<path class="st0" d="M50.4,36.4H15.2V0H0v87.9h15.2V51.6h35.2v36.4h15V0h-15V36.4z M283.2,43.6c3.1-3.8,7.6-6.5,14.8-6.6h0.4
			c7.7,0,12.1,2.4,15.2,5.7c1.9,2.2,3.2,4.9,3.8,7.8h13.2c0-3.9-1-7.7-2.7-11.1c-3.6-7.2-11.3-13.6-27-14.4h-0.6
			c-0.6,0-1.2-0.1-1.9-0.1H298c-12.3,0.1-21,3.9-26.5,9.8c-4.8,5-7.2,11.7-8,19c-0.3,2.6-0.6,4.4,0.4,10.6
			c0.5,4.2,3.6,11.8,7.4,15.8c6,6.3,15.2,9.5,26.8,9.5h0.1c0.8,0,1.5-0.1,2.2-0.1s1.3,0,1.9-0.1c0.3,0,0.6-0.1,1-0.1
			c9-0.8,15.5-3.6,19.7-7.6c0.5-0.5,1-1,1.4-1.5c3.7-4.1,5.8-9.5,5.9-15h-13.6c-0.7,2.3-1.9,4.4-3.4,6.3c-3.3,4.1-8.2,6.1-15,6.1
			c-7.4,0-12.1-1.9-15.5-6.1c-2.5-2.9-4.4-8.3-4.4-14.2c0-2.2,0.3-4.3,0.9-6.4C280.2,48.4,281.4,45.8,283.2,43.6z M134.5,59.3
			c0.1-4.9,0.2-14.4-0.3-17.6c-1.5-10.7-10.1-16.9-28.8-16.9c-12.8,0-21.2,2.7-26.8,10.3c-1.8,2.6-3,5.6-3.5,8.7L90,44.1
			c1.3-2.1,3.4-6.9,15.7-6.9c10.2,0,14,3.4,14,7c0,6-11.4,6.5-16.6,6.7C81.5,51.8,73.9,60,73.3,70.2c0,10,7.5,18.7,22.2,19.3
			c13.7,0.5,20.4-4.2,24.7-8.8c0,2.8,0,7.2,0.8,7.2h15.1C135.4,86.5,134.2,78.1,134.5,59.3z M120.3,60.3c0,1.9-0.2,3.8-0.5,5.6
			c-0.2,1.3-0.7,2.5-1.3,3.6c-1.4,2.1-3.3,3.9-5.5,5.2c-3.8,2-8,3-12.3,2.9c-12.5,0-13.4-5-13.4-7c0-2.8,1.6-5,4.5-6.4
			c4.5-2.2,9.7-2.7,15.5-2.7c4.3-0.1,9.9-0.1,13.1-1.8L120.3,60.3z M398,34.3c-5.5-5.9-14.3-9.4-26.6-9.4s-21.3,3.9-26.8,9.9
			c-5.5,5.8-8.1,13.8-8.1,22.5c0,10,2.8,17.4,7.9,22.9c6,6.3,15.3,9.5,27,9.5s20.8-3.4,26.7-9.7c5.3-5.4,8-13.1,8-22.6
			C406,48.2,403.6,40.1,398,34.3z M386.4,71.6c-3.3,4.1-8.2,6.1-15,6.1c-7.4,0-12.1-1.9-15.5-6.1c-2.5-2.9-4.4-8.3-4.4-14.2
			c0-5,1.8-10.5,4.6-13.8c3.2-3.8,7.7-6.6,15.2-6.6c7.7,0,12.1,2.4,15.2,5.7s4.6,9.1,4.6,14.7S389,68.6,386.4,71.6z M158.8,49.6
			V26.1h-15.2v61.9h15.2V57.8c0-11.5,14.4-26.4,32.5-16.5V26.1c-3.8-0.9-7.7-1.3-11.6-1.3C161.4,24.8,160.5,42.8,158.8,49.6
			L158.8,49.6z M251.7,26.1l-19.6,44.2l-20.9-44.2h-16.1l29.1,61.1l-8.7,19.5h16.2l36.1-80.5L251.7,26.1z"/>
	</g>
</g>
</svg>
